HIERARCHY
ROOT pelvis
{
	OFFSET 0.00 0.00 0.00
	CHANNELS 6 Xposition Yposition Zposition Xrotation Yrotation Zrotation
	JOINT lfemur
	{
		OFFSET 0.00000 4.05602 0.00000
		CHANNELS 3 Xrotation Yrotation Zrotation
		JOINT ltibia
		{
			OFFSET 0.00000 0.00000 -16.00820
			CHANNELS 3 Xrotation Yrotation Zrotation
			JOINT lfoot
			{
				OFFSET 0.00000 0.00000 -15.75048
				CHANNELS 3 Xrotation Yrotation Zrotation
				JOINT ltoes
				{
					OFFSET 3.98413 0.00000 -1.32706
					CHANNELS 3 Xrotation Yrotation Zrotation
				}
			}
		}
	}
	JOINT rfemur
	{
		OFFSET 0.00000 -4.05602 0.00000
		CHANNELS 3 Xrotation Yrotation Zrotation
		JOINT rtibia
		{
			OFFSET 0.00000 0.00000 -16.01513
			CHANNELS 3 Xrotation Yrotation Zrotation
			JOINT rfoot
			{
				OFFSET 0.00000 0.00000 -14.97088
				CHANNELS 3 Xrotation Yrotation Zrotation
				JOINT rtoes
				{
					OFFSET 3.58593 0.00000 -1.84314
					CHANNELS 3 Xrotation Yrotation Zrotation
				}
			}
		}
	}
	JOINT lowerback
	{
		OFFSET -1.96850 0.00000 3.64018
		CHANNELS 3 Xrotation Yrotation Zrotation
		JOINT upperback
		{
			OFFSET 1.09986 0.00000 5.68050
			CHANNELS 3 Xrotation Yrotation Zrotation
			JOINT lclavicle
			{
				OFFSET 0.00000 0.00000 8.27069
				CHANNELS 3 Xrotation Yrotation Zrotation
				JOINT lhumerus
				{
					OFFSET 0.00000 5.44900 -0.48966
					CHANNELS 3 Xrotation Yrotation Zrotation
					JOINT lradius
					{
						OFFSET 0.00000 0.00000 -10.57624
						CHANNELS 3 Xrotation Yrotation Zrotation
						JOINT lhand
						{
							OFFSET 0.00000 0.00000 -8.37809
							CHANNELS 3 Xrotation Yrotation Zrotation
						}
					}
				}
			}
			JOINT rclavicle
			{
				OFFSET 0.00000 0.00000 8.27069
				CHANNELS 3 Xrotation Yrotation Zrotation
				JOINT rhumerus
				{
					OFFSET 0.00000 -5.70459 -0.50171
					CHANNELS 3 Xrotation Yrotation Zrotation
					JOINT rradius
					{
						OFFSET 0.00000 0.00000 -10.59888
						CHANNELS 3 Xrotation Yrotation Zrotation
						JOINT rhand
						{
							OFFSET 0.00000 0.00000 -8.75951
							CHANNELS 3 Xrotation Yrotation Zrotation
						}
					}
				}
			}
			JOINT LowerNeck
			{
				OFFSET 0.00000 0.00000 8.27069
				CHANNELS 3 Xrotation Yrotation Zrotation
				JOINT Neck
				{
					OFFSET -1.62204 0.11373 3.12761
					CHANNELS 3 Xrotation Yrotation Zrotation
				}
			}
		}
	}
}
MOTION
Frames: 11
Frame Time: 0.008333
 -2.1571 23.4459 32.5918 9.4549 -2.6798 86.1825 -0.5059 11.6326 -6.5461 -0.0000 2.3930 17.6622 -0.2490 -16.1675 -0.9619 0.0000 -12.2088 0.0000 1.8256 10.5113 -2.6946 0.0000 3.3301 -6.7984 1.5040 -17.7563 5.8133 0.0000 3.4451 -0.0000 2.8875 11.7999 -0.2581 0.4201 -2.2957 -4.6074 -7.0314 0.0000 0.4718 25.0638 3.2182 -22.1359 0.0000 -26.5120 -28.7686 -3.1871 -20.5202 -0.0000 7.0823 -0.0000 4.0508 -26.6004 4.4472 25.5720 -0.0000 -27.5955 8.8559 10.2936 -6.6082 -0.0000 -1.7835 24.2917 9.7017 -5.4124 -45.3505 -8.3305
 -2.1570 23.4471 32.5920 9.4599 -2.6830 86.1812 -0.5027 11.6401 -6.5366 -0.0000 2.3921 17.6718 -0.2529 -16.1673 -0.9770 -0.0000 -12.2164 -0.0000 1.8304 10.5272 -2.6662 0.0000 3.3101 -6.8325 1.5069 -17.7447 5.8245 0.0000 3.4343 0.0000 2.9042 11.7892 -0.2517 0.4052 -2.2881 -4.6159 -7.0331 0.0000 0.4666 25.0655 3.2197 -22.1328 0.0000 -26.5127 -28.7627 -3.2039 -20.5060 -0.0000 7.0890 0.0000 4.0536 -26.6082 4.4555 25.5636 -0.0000 -27.5486 8.8184 10.3477 -6.5919 0.0000 -1.7431 24.3353 9.6710 -5.4324 -45.3741 -8.2966
 -2.1573 23.4478 32.5921 9.4633 -2.6768 86.1816 -0.5104 11.6530 -6.5656 -0.0000 2.3741 17.6816 -0.2479 -16.1556 -0.9578 0.0000 -12.2106 -0.0000 1.8216 10.5402 -2.6943 0.0000 3.2939 -6.7846 1.5013 -17.7431 5.8030 0.0000 3.4419 0.0000 2.9186 11.7839 -0.2549 0.3839 -2.2929 -4.6240 -7.0403 0.0000 0.4722 25.0724 3.2300 -22.1213 0.0000 -26.5218 -28.7820 -3.1863 -20.5064 -0.0000 7.0972 -0.0000 4.0634 -26.6161 4.4778 25.5422 -0.0000 -27.5119 8.8221 10.3667 -6.5769 0.0000 -1.7524 24.3414 9.6931 -5.4297 -45.3508 -8.3161
 -2.1565 23.4482 32.5919 9.4653 -2.6780 86.1827 -0.5069 11.6581 -6.5605 -0.0000 2.3687 17.6634 -0.2447 -16.1534 -0.9454 0.0000 -12.2139 0.0000 1.8247 10.5441 -2.6895 0.0000 3.2908 -6.8103 1.5074 -17.7405 5.8264 -0.0000 3.4339 -0.0000 2.9183 11.7858 -0.2552 0.3899 -2.2948 -4.6243 -7.0443 0.0000 0.4817 25.0697 3.2214 -22.1180 0.0000 -26.5263 -28.7700 -3.1966 -20.5037 -0.0000 7.0989 -0.0000 4.0538 -26.6247 4.4837 25.5333 -0.0000 -27.4738 8.8509 10.3544 -6.5828 0.0000 -1.7771 24.3293 9.7118 -5.3945 -45.3392 -8.3199
 -2.1560 23.4484 32.5918 9.4679 -2.6778 86.1843 -0.5060 11.6624 -6.5612 -0.0000 2.3657 17.6637 -0.2453 -16.1516 -0.9475 0.0000 -12.2161 -0.0000 1.8254 10.5510 -2.6934 0.0000 3.2831 -6.8133 1.5089 -17.7365 5.8322 0.0000 3.4309 0.0000 2.9224 11.7866 -0.2579 0.3900 -2.2987 -4.6236 -7.0510 0.0000 0.4847 25.0697 3.2205 -22.1108 0.0000 -26.5328 -28.7663 -3.1934 -20.5006 0.0000 7.1009 0.0000 4.0494 -26.6337 4.4938 25.5208 -0.0000 -27.4359 8.8655 10.3608 -6.5811 -0.0000 -1.8170 24.3335 9.7461 -5.3630 -45.3375 -8.3479
 -2.1555 23.4485 32.5916 9.4714 -2.6775 86.1870 -0.5051 11.6664 -6.5659 -0.0000 2.3646 17.6722 -0.2473 -16.1529 -0.9552 0.0000 -12.2120 0.0000 1.8262 10.5590 -2.6988 0.0000 3.2749 -6.8182 1.5109 -17.7342 5.8401 0.0000 3.4305 0.0000 2.9263 11.7890 -0.2621 0.3901 -2.3031 -4.6205 -7.0572 0.0000 0.4845 25.0681 3.2203 -22.1016 0.0000 -26.5394 -28.7630 -3.1864 -20.4992 -0.0000 7.1021 -0.0000 4.0446 -26.6429 4.5035 25.5074 -0.0000 -27.3985 8.8757 10.3690 -6.5813 0.0000 -1.8613 24.3426 9.7804 -5.3287 -45.3424 -8.3787
 -2.1551 23.4485 32.5914 9.4769 -2.6773 86.1911 -0.5042 11.6716 -6.5736 -0.0000 2.3653 17.6853 -0.2500 -16.1578 -0.9660 0.0000 -12.2022 -0.0000 1.8275 10.5704 -2.7025 0.0000 3.2642 -6.8287 1.5136 -17.7330 5.8506 0.0000 3.4310 0.0000 2.9301 11.7925 -0.2675 0.3906 -2.3065 -4.6157 -7.0631 0.0000 0.4813 25.0652 3.2204 -22.0907 0.0000 -26.5463 -28.7614 -3.1774 -20.4998 -0.0000 7.1021 -0.0000 4.0392 -26.6517 4.5126 25.4929 -0.0000 -27.3618 8.8822 10.3780 -6.5816 0.0000 -1.9062 24.3553 9.8141 -5.2946 -45.3521 -8.4098
 -2.1547 23.4485 32.5913 9.4833 -2.6767 86.1956 -0.5039 11.6767 -6.5802 -0.0000 2.3680 17.7002 -0.2536 -16.1628 -0.9797 0.0000 -12.1931 -0.0000 1.8284 10.5832 -2.7053 0.0000 3.2524 -6.8395 1.5161 -17.7329 5.8602 -0.0000 3.4350 -0.0000 2.9344 11.7972 -0.2730 0.3893 -2.3101 -4.6114 -7.0677 0.0000 0.4780 25.0615 3.2210 -22.0810 0.0000 -26.5544 -28.7583 -3.1686 -20.5016 -0.0000 7.1022 -0.0000 4.0348 -26.6605 4.5220 25.4774 -0.0000 -27.3266 8.8906 10.3873 -6.5803 0.0000 -1.9411 24.3743 9.8422 -5.2704 -45.3682 -8.4363
 -2.1543 23.4487 32.5911 9.4911 -2.6758 86.1986 -0.5042 11.6835 -6.5836 -0.0000 2.3710 17.7132 -0.2573 -16.1659 -0.9940 0.0000 -12.1876 -0.0000 1.8285 10.5973 -2.7045 0.0000 3.2409 -6.8519 1.5183 -17.7317 5.8689 -0.0000 3.4381 0.0000 2.9395 11.8036 -0.2773 0.3856 -2.3150 -4.6087 -7.0704 0.0000 0.4757 25.0569 3.2229 -22.0742 0.0000 -26.5647 -28.7525 -3.1621 -20.5035 -0.0000 7.1027 -0.0000 4.0324 -26.6693 4.5331 25.4627 -0.0000 -27.2931 8.9019 10.3925 -6.5783 -0.0000 -1.9654 24.3995 9.8655 -5.2589 -45.3903 -8.4602
 -2.1539 23.4490 32.5911 9.4994 -2.6748 86.1996 -0.5051 11.6923 -6.5865 -0.0000 2.3719 17.7226 -0.2597 -16.1658 -1.0031 -0.0000 -12.1874 -0.0000 1.8280 10.6107 -2.7021 0.0000 3.2323 -6.8619 1.5198 -17.7310 5.8747 0.0000 3.4402 -0.0000 2.9449 11.8095 -0.2790 0.3806 -2.3176 -4.6075 -7.0721 0.0000 0.4755 25.0517 3.2234 -22.0710 0.0000 -26.5766 -28.7435 -3.1647 -20.5054 -0.0000 7.1029 -0.0000 4.0300 -26.6782 4.5426 25.4524 0.0000 -27.2603 8.9097 10.3920 -6.5782 0.0000 -1.9754 24.4208 9.8745 -5.2559 -45.4092 -8.4718
 -2.1535 23.4494 32.5910 9.5077 -2.6735 86.2000 -0.5062 11.7012 -6.5888 -0.0000 2.3727 17.7308 -0.2614 -16.1659 -1.0100 0.0000 -12.1899 -0.0000 1.8275 10.6233 -2.6929 0.0000 3.2255 -6.8766 1.5209 -17.7316 5.8788 -0.0000 3.4430 0.0000 2.9497 11.8131 -0.2793 0.3757 -2.3176 -4.6060 -7.0738 0.0000 0.4731 25.0465 3.2240 -22.0693 0.0000 -26.5903 -28.7369 -3.1745 -20.5070 -0.0000 7.1026 -0.0000 4.0273 -26.6871 4.5516 25.4446 -0.0000 -27.2285 8.9127 10.3876 -6.5800 0.0000 -1.9708 24.4401 9.8681 -5.2604 -45.4248 -8.4697
